<?xml version="1.0" encoding="utf-8"?>
<!-- Generator: Adobe Illustrator 24.0.2, SVG Export Plug-In . SVG Version: 6.00 Build 0)  -->
<svg version="1.1" xmlns="http://www.w3.org/2000/svg" xmlns:xlink="http://www.w3.org/1999/xlink" x="0px" y="0px"
	 viewBox="0 0 24 24" style="enable-background:new 0 0 24 24;" xml:space="preserve">
<style type="text/css">
	.st0{fill:none;}
	.st1{fill:#ffffff;}
</style>
<g id="bounding_box">
	<rect class="st0" width="24" height="24"/>
</g>
<g id="design">
	<path class="st1" d="M22,7v6c0,0.55-0.45,1-1,1s-1-0.45-1-1V9.42l-6.54,6.54c-0.19,0.18-0.44,0.29-0.71,0.29s-0.52-0.11-0.71-0.29
		l-2.79-2.8l-5.54,5.55C3.51,18.9,3.26,19,3,19s-0.51-0.1-0.71-0.29c-0.39-0.39-0.39-1.02,0-1.42l6.25-6.25
		c0.19-0.18,0.45-0.29,0.71-0.29c0.27,0,0.52,0.11,0.71,0.29l2.79,2.8L18.58,8H15c-0.55,0-1-0.45-1-1s0.45-1,1-1h6
		c0.08,0,0.17,0.01,0.25,0.04c0.05,0,0.09,0.02,0.14,0.04c0.12,0.05,0.23,0.12,0.32,0.21c0.09,0.09,0.16,0.2,0.21,0.32
		c0.02,0.05,0.04,0.09,0.04,0.14C21.99,6.83,22,6.92,22,7z"/>
</g>
</svg>
